<?xml version="1.0" encoding="utf-8"?>
<!-- Generator: Adobe Illustrator 26.3.1, SVG Export Plug-In . SVG Version: 6.00 Build 0)  -->
<svg version="1.1" id="Слой_1" xmlns="http://www.w3.org/2000/svg" xmlns:xlink="http://www.w3.org/1999/xlink" x="0px" y="0px"
	 viewBox="0 0 82.7 81" style="enable-background:new 0 0 82.7 81;" xml:space="preserve">
<style type="text/css">
	
		.st0{clip-path:url(#SVGID_00000065057404403355882280000015405173278932267148_);fill:none;stroke:#46B843;stroke-width:4;stroke-miterlimit:20;}
	.st1{fill:none;stroke:#46B843;stroke-width:2;stroke-miterlimit:20;}
	.st2{fill:#46B843;}
</style>
<g>
	<g>
		<g>
			<g>
				<g>
					<defs>
						<path id="SVGID_1_" d="M492.4,135.6c0.7,0,1.2-0.6,1.2-1.3c-0.3-6.8-3.2-12.9-7.7-17.4c-4.5-4.5-10.6-7.4-17.4-7.7
							c-0.7,0-1.2,0.5-1.3,1.2c0,0,0,0,0,0.1v5.1c0,0.7,0.6,1.2,1.3,1.3c4.5,0.3,8.8,2.2,12,5.5c3.2,3.2,5.1,7.5,5.4,12
							c0,0.7,0.6,1.3,1.3,1.3H492.4z M506,135.6c0.7,0,1.2-0.6,1.2-1.3c-0.3-10.5-4.7-20.1-11.7-27c-7-7-16.5-11.4-27-11.7
							c-0.7,0-1.2,0.5-1.3,1.2c0,0,0,0,0,0v5.1c0,0.7,0.6,1.2,1.3,1.3c16.8,0.7,30.4,14.2,31.1,31.1c0,0.7,0.6,1.3,1.3,1.3H506z"/>
					</defs>
					<clipPath id="SVGID_00000137120777931525945660000016965855439657921203_">
						<use xlink:href="#SVGID_1_"  style="overflow:visible;"/>
					</clipPath>
					
						<path style="clip-path:url(#SVGID_00000137120777931525945660000016965855439657921203_);fill:none;stroke:#46B843;stroke-width:4;stroke-miterlimit:20;" d="
						M492.4,135.6c0.7,0,1.2-0.6,1.2-1.3c-0.3-6.8-3.2-12.9-7.7-17.4c-4.5-4.5-10.6-7.4-17.4-7.7c-0.7,0-1.2,0.5-1.3,1.2
						c0,0,0,0,0,0.1v5.1c0,0.7,0.6,1.2,1.3,1.3c4.5,0.3,8.8,2.2,12,5.5c3.2,3.2,5.1,7.5,5.4,12c0,0.7,0.6,1.3,1.3,1.3H492.4z
						 M506,135.6c0.7,0,1.2-0.6,1.2-1.3c-0.3-10.5-4.7-20.1-11.7-27c-7-7-16.5-11.4-27-11.7c-0.7,0-1.2,0.5-1.3,1.2c0,0,0,0,0,0v5.1
						c0,0.7,0.6,1.2,1.3,1.3c16.8,0.7,30.4,14.2,31.1,31.1c0,0.7,0.6,1.3,1.3,1.3H506z"/>
				</g>
			</g>
			<g>
				<path class="st1" d="M466.4,130.4c0-2.9,2.3-5.2,5.2-5.2c2.9,0,5.2,2.3,5.2,5.2s-2.3,5.2-5.2,5.2
					C468.7,135.6,466.4,133.3,466.4,130.4z"/>
			</g>
		</g>
	</g>
</g>
<g id="Group" transform="translate(1 0)">
	<path id="Combined_Shape" class="st2" d="M79.2,78c0.1,0,0.2-0.1,0.3-0.1c0.1-0.1,0.1-0.2,0.1-0.3c-0.3-10-2.5-19.8-6.6-28.9
		c-2-4.4-4.3-8.7-7.1-12.7c-2.7-4-5.8-7.7-9.2-11.1c-3.4-3.4-7.1-6.5-11.1-9.2c-4-2.7-8.2-5.1-12.7-7.1C24,4.5,14.2,2.3,4.2,2h0
		C3.9,2,3.7,2.2,3.7,2.5v10.3c0,0.3,0.3,0.6,0.6,0.6c34.7,1.5,62.6,29.4,64,64.1c0,0.3,0.2,0.6,0.6,0.6H79.2 M52,78
		c0.1,0,0.2-0.1,0.3-0.1c0.1-0.1,0.1-0.2,0.1-0.3C51.9,64.9,46.6,53,37.6,44.1c-8.9-9-20.8-14.2-33.4-14.8c-0.2,0-0.4,0.2-0.4,0.4
		c0,0,0,0,0,0v10.3c0,0.3,0.3,0.6,0.6,0.6c9.5,0.6,18.5,4.7,25.2,11.5c6.8,6.8,10.9,15.8,11.5,25.3c0,0.3,0.3,0.6,0.6,0.7H52
		 M79.2,80H68.9c-1.4,0-2.5-1.1-2.6-2.5C65,43.7,38,16.7,4.3,15.3c-1.4,0-2.5-1.2-2.5-2.6V2.5C1.7,1.1,2.8,0,4.2,0c0,0,0,0,0.1,0
		c20.3,0.6,39.7,9,54,23.4c14.4,14.4,22.8,33.7,23.4,54C81.7,78.8,80.7,80,79.2,80C79.3,80,79.3,80,79.2,80z M52,80H41.7
		c-1.4,0-2.5-1.1-2.6-2.5c-0.6-9.1-4.5-17.6-10.9-24.1c-6.4-6.4-14.9-10.3-24-10.9c-1.4-0.1-2.5-1.2-2.5-2.6V29.7
		c0-1.3,1.1-2.4,2.4-2.4c0,0,0.1,0,0.1,0c13.1,0.6,25.5,6.1,34.8,15.4c9.3,9.3,14.8,21.7,15.4,34.8c0.1,1.3-1,2.5-2.3,2.5
		C52.1,80,52.1,80,52,80z"/>
	<path id="Oval_3" class="st2" d="M10.4,58.1c6.3,0,11.4,5.1,11.4,11.4l0,0c0,6.3-5.1,11.4-11.4,11.4l0,0C4.1,81-1,75.9-1,69.6
		c0,0,0,0,0,0C-1,63.3,4.1,58.1,10.4,58.1C10.4,58.1,10.4,58.1,10.4,58.1z M10.4,79c5.2,0,9.4-4.2,9.4-9.4s-4.2-9.4-9.4-9.4
		S1,64.4,1,69.6l0,0C1,74.8,5.2,79,10.4,79z"/>
</g>
</svg>
