<svg xmlns="http://www.w3.org/2000/svg" xmlns:xlink="http://www.w3.org/1999/xlink"><defs><style>
    .sprite-symbol-usage {display: none;}
    .sprite-symbol-usage:target {display: inline;}
  </style><symbol viewBox="0 0 77.36 79.54" id="call"><path d="M38.67 77.54c5.49 0 9.94-4.46 9.95-9.95v-2.36h25.02c.95 0 1.73-.78 1.73-1.73 0-.26-.06-.52-.18-.76l-8.06-16.5V30.41A28.29 28.29 0 0 0 49.35 4.15C45.84 2.89 42.15 2.17 38.42 2c-3.55.14-7.05.86-10.36 2.14h-.03C17.2 8.34 10.11 18.8 10.24 30.41v15.83l-8.06 16.5c-.42.86-.07 1.89.79 2.31.24.12.5.18.76.18h25v2.36c0 5.49 4.46 9.94 9.95 9.95m0 2c-6.6 0-11.95-5.35-11.95-11.94v-.36h-23A3.745 3.745 0 0 1 0 63.5c0-.57.13-1.13.38-1.64l7.86-16.08V30.43A29.806 29.806 0 0 1 27.3 2.29 34.15 34.15 0 0 1 38.42 0c3.97.17 7.9.94 11.64 2.29a30.297 30.297 0 0 1 19.07 28.12v15.37l7.86 16.08a3.728 3.728 0 0 1-3.35 5.37H50.62v.36c0 6.6-5.35 11.95-11.95 11.95Z" fill="#46b843" /></symbol><symbol viewBox="0 0 16 15.92" id="comment"><path d="M1.03 1S1 1.04 1 1.07V12h2v2.61L8.04 12H15V1.07s-.01-.05-.03-.07H1.03M1 0h14c.57.03 1.01.5 1 1.07v10.98c0 .53-.43.95-.96.95H8.28L2.9 15.79c-.5.24-.9.15-.9-.41V13H1a.96.96 0 0 1-1-.91V1.07C0 .5.43.03 1 0Z" fill="#889099" /></symbol><symbol viewBox="0 0 82.69 81" id="posts"><g fill="#46b843"><path d="M81.24 78c.12 0 .24-.05.33-.14.09-.09.13-.2.13-.33a77.26 77.26 0 0 0-6.57-28.94 78.378 78.378 0 0 0-7.06-12.66 79.408 79.408 0 0 0-9.21-11.08c-3.4-3.41-7.11-6.49-11.08-9.22a77.53 77.53 0 0 0-12.65-7.06A77.21 77.21 0 0 0 6.2 2h-.01c-.25 0-.45.21-.45.46v10.27c.03.31.29.55.61.55C41.1 14.79 68.9 42.64 70.37 77.39c0 .32.24.58.55.61h10.32m-27.22 0c.12 0 .24-.05.32-.14.08-.08.12-.19.11-.3a50.768 50.768 0 0 0-14.85-33.5A50.52 50.52 0 0 0 6.15 29.22c-.24 0-.42.2-.42.43v10.28c.04.33.31.58.64.59 9.53.64 18.5 4.73 25.24 11.49a39.513 39.513 0 0 1 11.48 25.33c0 .33.26.61.59.65h10.34m27.22 2H70.92a2.604 2.604 0 0 1-2.55-2.53c-1.34-33.74-28.36-60.8-62.1-62.19a2.604 2.604 0 0 1-2.53-2.55V2.46C3.74 1.1 4.84 0 6.2 0h.07c20.33.64 39.65 9.02 54 23.44a79.81 79.81 0 0 1 23.42 54.04 2.46 2.46 0 0 1-2.39 2.53h-.07Zm-27.22 0H43.68a2.65 2.65 0 0 1-2.58-2.52 37.308 37.308 0 0 0-10.89-24.05A37.255 37.255 0 0 0 6.25 42.51a2.658 2.658 0 0 1-2.51-2.59V29.66a2.437 2.437 0 0 1 2.4-2.45h.11c13.11.62 25.52 6.13 34.77 15.43a52.755 52.755 0 0 1 15.44 34.81c.05 1.34-.99 2.47-2.33 2.53h-.1ZM12.44 58.13c6.32 0 11.44 5.12 11.44 11.44 0 6.32-5.12 11.44-11.44 11.44C6.12 81.01 1 75.89 1 69.57c0-6.32 5.12-11.44 11.44-11.44Zm0 20.87c5.21 0 9.44-4.22 9.44-9.44s-4.22-9.44-9.44-9.44S3 64.34 3 69.56c0 5.21 4.23 9.43 9.44 9.44Z" /></g></symbol><symbol viewBox="0 0 20 20" id="search"><path d="M8.5 17C3.81 17 0 13.19 0 8.5S3.81 0 8.5 0 17 3.81 17 8.5 13.19 17 8.5 17Zm0-15C4.92 2 2 4.92 2 8.5S4.92 15 8.5 15 15 12.08 15 8.5 12.08 2 8.5 2Z" fill="#22252e" /><path d="M19 20c-.26 0-.51-.1-.71-.29l-5.2-5.2a.996.996 0 1 1 1.41-1.41l5.2 5.2a.996.996 0 0 1-.71 1.7Z" fill="#22252e" /></symbol></defs><use id="call-usage" xlink:href="#call" class="sprite-symbol-usage" /><use id="comment-usage" xlink:href="#comment" class="sprite-symbol-usage" /><use id="posts-usage" xlink:href="#posts" class="sprite-symbol-usage" /><use id="search-usage" xlink:href="#search" class="sprite-symbol-usage" /></svg>